<?xml version="1.0" standalone="no"?><!DOCTYPE svg PUBLIC "-//W3C//DTD SVG 1.1//EN" "http://www.w3.org/Graphics/SVG/1.1/DTD/svg11.dtd"><svg t="1747988782654" class="icon" viewBox="0 0 1024 1024" version="1.1" xmlns="http://www.w3.org/2000/svg" p-id="9712" xmlns:xlink="http://www.w3.org/1999/xlink" width="128" height="128"><path d="M919.253333 128h-810.666666a64 64 0 0 0-64 64v725.333333a21.333333 21.333333 0 0 0 33.92 17.066667l181.973333-133.333333A64 64 0 0 1 298.666667 789.333333h620.586666a64 64 0 0 0 64-64V192a64 64 0 0 0-64-64zM286.933333 506.026667a52.48 52.48 0 1 1 52.48-52.48 52.48 52.48 0 0 1-52.48 52.48z m235.733334 0a52.48 52.48 0 1 1 53.333333-52.48 52.266667 52.266667 0 0 1-53.333333 52.48z m234.666666 0a52.48 52.48 0 1 1 53.333334-52.48 52.48 52.48 0 0 1-52.266667 52.48z" p-id="9713"></path></svg>